<svg width="19" height="20" fill="none" xmlns="http://www.w3.org/2000/svg"><path fill-rule="evenodd" clip-rule="evenodd" d="M8.81.708a1.65 1.65 0 0 1 1.603 0l7.2 4c.524.291.849.844.849 1.443v7.94c0 .6-.325 1.152-.849 1.443l-7.2 4a1.65 1.65 0 0 1-1.603 0l-7.2-4a1.65 1.65 0 0 1-.848-1.442V6.15c0-.6.325-1.152.848-1.443l7.2-4Zm.875 1.312a.15.15 0 0 0-.146 0l-7.2 4a.15.15 0 0 0-.077.13v7.942c0 .054.03.104.077.13l7.2 4a.15.15 0 0 0 .146 0l7.2-4a.15.15 0 0 0 .077-.13V6.15a.15.15 0 0 0-.077-.131l-7.2-4Z" fill="#FF5A3C"/><path fill-rule="evenodd" clip-rule="evenodd" d="M4.862 10.121a4.75 4.75 0 1 1 9.5 0 4.75 4.75 0 0 1-9.5 0Zm4.75-3.25a3.25 3.25 0 1 0 0 6.5 3.25 3.25 0 0 0 0-6.5Z" fill="#FF5A3C"/></svg>