<svg width="31" height="31" fill="none" xmlns="http://www.w3.org/2000/svg"><rect x=".951" y=".759" width="30" height="30" rx="15" fill="#FF5A3C" fill-opacity=".2"/><path d="M11.96 13.633a.468.468 0 0 0-.683-.64l-.23.23v-1.885a.83.83 0 0 1 1.656 0 .469.469 0 0 0 .938 0c0-.973-.792-1.765-1.766-1.765-.973 0-1.765.792-1.765 1.765v1.884l-.23-.23a.469.469 0 0 0-.683.641h2.763ZM23.482 14.57H8.419a.469.469 0 0 0 0 .938h.177l.73 2.757a3.521 3.521 0 0 0 2.072 2.382l-.434.535a.469.469 0 0 0 .728.59l.711-.876c.12.012.242.018.366.018h6.365c.124 0 .247-.007.369-.019l.711.877a.468.468 0 1 0 .728-.59l-.434-.536a3.521 3.521 0 0 0 2.07-2.382c.263-.994.503-1.9.732-2.756h.172a.469.469 0 0 0 0-.937Z" fill="#FF5A3C"/></svg>