<svg width="31" height="31" fill="none" xmlns="http://www.w3.org/2000/svg"><rect x=".951" y=".759" width="30" height="30" rx="15" fill="#FF5A3C" fill-opacity=".2"/><path d="M9.617 14.092h1.667a.334.334 0 0 1-.323-.414l.207-.828a.998.998 0 0 1 .97-.758h2.146c.551 0 1 .449 1 1v.667c0 .184-.15.333-.333.333h2a.333.333 0 0 1-.334-.333v-.667c0-.551.449-1 1-1h2.146c.46 0 .859.312.97.758l.208.828a.331.331 0 0 1-.324.414h1.667c.184 0 .333-.15.333-.333v-2c0-.919-.748-1.667-1.666-1.667h-10c-.919 0-1.667.748-1.667 1.667v2c0 .184.15.333.333.333ZM22.284 14.759H9.617c-.918 0-1.666.748-1.666 1.667v4.666a.334.334 0 0 0 .666 0v-1h14.667v1a.334.334 0 0 0 .667 0v-4.666c0-.919-.748-1.667-1.667-1.667Zm1 4.667H8.617v-.667h14.667v.667Z" fill="#FF5A3C"/></svg>