<svg width="49" height="35" fill="none" xmlns="http://www.w3.org/2000/svg"><path d="M5.091 12.397h5.051a1.012 1.012 0 0 1-.98-1.255l.629-2.512a3.026 3.026 0 0 1 2.94-2.295h6.504c1.671 0 3.03 1.36 3.03 3.03v2.021a1.01 1.01 0 0 1-1.01 1.01h6.062a1.01 1.01 0 0 1-1.01-1.01v-2.02c0-1.671 1.36-3.031 3.03-3.031h6.505c1.392 0 2.602.944 2.94 2.295l.628 2.512c.077.301.008.622-.183.867a1.012 1.012 0 0 1-.796.388h5.05a1.01 1.01 0 0 0 1.011-1.01V5.324A5.058 5.058 0 0 0 39.441.273H9.132a5.058 5.058 0 0 0-5.051 5.052v6.061c0 .558.452 1.01 1.01 1.01ZM43.482 14.418H5.09a5.058 5.058 0 0 0-5.051 5.05v14.145a1.01 1.01 0 0 0 2.02 0v-3.031h44.453v3.03a1.01 1.01 0 0 0 2.02 0V19.47a5.059 5.059 0 0 0-5.051-5.052Zm3.03 14.143H2.06v-2.02h44.453v2.02Z" fill="#FF5A3C"/></svg>