<svg width="157" height="157" fill="none" xmlns="http://www.w3.org/2000/svg"><g filter="url('#filter0_d_2_594')"><path fill-rule="evenodd" clip-rule="evenodd" d="M77.324 17.432c23.639 0 46.159 15.602 46.159 39.367 0 26.821-19.479 50.633-46.159 50.633-26.076 0-43.84-24.418-43.84-50.634 0-23.078 20.884-39.366 43.84-39.366Z" fill="#F5DFDC"/></g><g clip-path="url('#clip0_2_594')"><path d="M75.67 77.592H61.11v-4.716c0-.992.413-1.944 1.2-2.564 4.26-3.516 8.893-5.833 9.803-6.288.124-.041.165-.165.165-.29v-2.44a9.813 9.813 0 0 1-1.158-3.35c-.372-.042-.869-.538-1.406-2.441-.662-2.4-.042-2.896.579-2.896h.124a6.306 6.306 0 0 1-.166-3.888c.331-1.448 1.117-2.606 1.986-3.516a9.403 9.403 0 0 1 1.862-1.53 7.225 7.225 0 0 1 1.778-.91c.538-.166 1.076-.29 1.655-.29.248-.041.455-.041.703-.041 1.448 0 2.565.413 3.392.91 1.448.786 1.985 1.861 1.985 1.861s3.64.248 2.027 7.86c.497.165.828.827.249 2.854-.538 1.944-1.076 2.44-1.448 2.44-.124 0-.207-.041-.29-.082-.165.868-.413 1.778-.827 2.647v2.854c0 .124.083.207.165.29.414.206 1.614.827 3.227 1.737-.124.124-.29.248-.414.372-1.117 1.076-1.696 2.482-1.696 4.095 0 1.903.662 3.103 1.365 3.847-.455.124-.827.373-1.158.703-.455.497-.703 1.117-.662 1.78 0 .372.083.702.124 1.033H75.67v-.041Zm16.422-13.237h-1.406a.37.37 0 0 0-.372.372v1.655c-1.076.165-1.903.538-2.565 1.158-.703.703-1.075 1.572-1.075 2.648 0 1.2.33 2.068 1.034 2.688.703.62 1.778 1.2 3.267 1.82.62.249 1.035.538 1.283.828.248.29.372.662.372 1.158 0 .414-.124.786-.372 1.034s-.58.414-1.034.414c-.538 0-.993-.166-1.324-.538-.29-.29-.455-.703-.496-1.282 0-.207-.207-.414-.456-.414l-2.274.041a.46.46 0 0 0-.456.455c.042 1.2.456 2.151 1.159 2.813.786.703 1.778 1.117 2.937 1.282v1.572a.37.37 0 0 0 .372.373h1.406a.37.37 0 0 0 .373-.373v-1.613c.951-.165 1.695-.538 2.316-1.117.703-.662 1.034-1.572 1.034-2.647 0-1.158-.33-2.068-1.034-2.689-.703-.62-1.779-1.24-3.268-1.861-.62-.29-1.075-.538-1.282-.828-.248-.29-.331-.62-.331-1.075 0-.414.124-.786.33-1.076.208-.29.539-.413.994-.413.455 0 .786.165 1.075.496.207.29.331.662.372 1.158 0 .207.207.373.455.373l2.275-.042a.459.459 0 0 0 .456-.455c-.042-.992-.373-1.82-.952-2.523-.62-.703-1.406-1.158-2.4-1.365v-1.737c0-.124-.206-.29-.413-.29Z" fill="#FF5A3C"/></g><defs><clipPath id="clip0_2_594"><path fill="#fff" transform="translate(58.483 42.432)" d="M0 0h40v40H0z"/></clipPath><filter id="filter0_d_2_594" x=".483" y=".432" width="156" height="156" filterUnits="userSpaceOnUse" color-interpolation-filters="sRGB"><feFlood flood-opacity="0" result="BackgroundImageFix"/><feColorMatrix in="SourceAlpha" values="0 0 0 0 0 0 0 0 0 0 0 0 0 0 0 0 0 0 127 0" result="hardAlpha"/><feMorphology radius="12" in="SourceAlpha" result="effect1_dropShadow_2_594"/><feOffset dy="16"/><feGaussianBlur stdDeviation="22.5"/><feColorMatrix values="0 0 0 0 0.235294 0 0 0 0 0.313726 0 0 0 0 0.878431 0 0 0 0.05 0"/><feBlend in2="BackgroundImageFix" result="effect1_dropShadow_2_594"/><feBlend in="SourceGraphic" in2="effect1_dropShadow_2_594" result="shape"/></filter></defs></svg>