<svg width="51" height="50" fill="none" xmlns="http://www.w3.org/2000/svg"><path d="M42.464 33.52a23.844 23.844 0 0 0-7.888-5.4 24.251 24.251 0 0 0-9.425-1.903c-3.24 0-6.447.647-9.424 1.903a23.843 23.843 0 0 0-7.888 5.4 2.693 2.693 0 0 0-.75 1.865v7.16c0 .722.293 1.414.813 1.925.521.51 1.228.797 1.965.797h30.555c.737 0 1.444-.287 1.964-.797.521-.51.814-1.203.814-1.925v-7.16a2.693 2.693 0 0 0-.736-1.864Zm-2.042 9.025H9.867v-7.173a21.08 21.08 0 0 1 6.964-4.754 21.441 21.441 0 0 1 8.313-1.675c2.859 0 5.687.57 8.314 1.675a21.081 21.081 0 0 1 6.964 4.754v7.173ZM25.144 23.49a9.845 9.845 0 0 0 6.181-2.178h-.306a5.176 5.176 0 0 1-3.097-1.09 7.072 7.072 0 0 1-3.607.503 7.02 7.02 0 0 1-3.37-1.357 6.822 6.822 0 0 1-2.206-2.842 6.68 6.68 0 0 1-.433-3.546 6.74 6.74 0 0 1 1.458-3.272 6.94 6.94 0 0 1 2.948-2.099 7.077 7.077 0 0 1 3.626-.347c1.219.203 2.36.72 3.306 1.5l1.39-2.395a9.823 9.823 0 0 0-4.18-1.788 9.913 9.913 0 0 0-4.552.277 9.765 9.765 0 0 0-3.922 2.28 9.504 9.504 0 0 0-2.43 3.782 9.346 9.346 0 0 0-.402 4.452 9.423 9.423 0 0 0 1.713 4.142 9.67 9.67 0 0 0 3.452 2.92 9.883 9.883 0 0 0 4.431 1.057Z" fill="#FF5A3C"/><path d="m37.436 1.902-7.944 13.42a1.718 1.718 0 0 0 .59 2.496c.285.159.61.238.938.227h15.902c.328.01.653-.068.938-.227.286-.16.52-.393.678-.675a1.714 1.714 0 0 0-.088-1.82l-7.944-13.42a1.76 1.76 0 0 0-.65-.633 1.806 1.806 0 0 0-1.77 0 1.76 1.76 0 0 0-.65.632Z" fill="#FF5A3C"/></svg>