<svg width="21" height="21" fill="none" xmlns="http://www.w3.org/2000/svg"><circle cx="10.951" cy="10.759" r="10" fill="#FF5A3C"/><g clip-path="url('#clip0_2_362')"><path d="M10.95 6.093a4.667 4.667 0 1 0 .001 9.333 4.667 4.667 0 0 0 0-9.333Zm1.341 6.506a1.5 1.5 0 0 1-.777.5c-.135.036-.196.107-.189.247.006.138 0 .275-.002.413 0 .123-.063.188-.184.192-.079.002-.157.004-.236.004-.07 0-.138 0-.208-.002-.13-.002-.192-.077-.192-.204-.002-.1-.002-.201-.002-.301-.002-.223-.01-.23-.222-.265a2.832 2.832 0 0 1-.792-.227c-.195-.096-.217-.144-.16-.351.041-.154.084-.308.132-.46.034-.11.067-.16.126-.16.035 0 .08.017.139.048.276.144.57.224.88.263a1.039 1.039 0 0 0 .576-.077c.343-.15.397-.547.107-.786a1.4 1.4 0 0 0-.329-.192c-.301-.132-.614-.232-.898-.403-.461-.276-.753-.655-.718-1.216.038-.633.397-1.029.979-1.24.24-.087.242-.085.242-.334 0-.085-.002-.17.002-.256.006-.188.036-.22.225-.226H11.008c.358 0 .358.015.36.4.002.285.002.285.284.33a2.5 2.5 0 0 1 .622.186c.11.048.152.124.117.242-.05.172-.098.347-.152.518-.034.104-.067.152-.128.152a.309.309 0 0 1-.13-.04 1.963 1.963 0 0 0-.988-.196.775.775 0 0 0-.263.053c-.3.131-.348.461-.092.665.129.104.276.177.428.24.265.11.53.215.782.353.79.442 1.006 1.446.443 2.13Z" fill="#fff"/></g><defs><clipPath id="clip0_2_362"><path fill="#fff" transform="translate(6.284 6.093)" d="M0 0h9.333v9.333H0z"/></clipPath></defs></svg>