<svg width="36" height="36" fill="none" xmlns="http://www.w3.org/2000/svg"><path d="m1.878 1.26 6.974 6.975-2.882 2.882a1.027 1.027 0 1 0 1.452 1.452l2.883-2.882 2.928 2.929-2.882 2.882a1.027 1.027 0 1 0 1.452 1.452l2.882-2.882 2.93 2.929-2.883 2.882a1.027 1.027 0 0 0 1.452 1.452l2.882-2.883 2.929 2.93-2.882 2.881a1.027 1.027 0 1 0 1.452 1.452l2.882-2.882 2.929 2.929-2.882 2.882a1.027 1.027 0 0 0 1.452 1.452l2.882-2.882 6.974 6.975c.645.645.188 1.753-.726 1.753H1.152c-.567 0-1.027-.46-1.027-1.027V1.986c0-.912 1.107-1.371 1.753-.726Zm4.887 27.011c0 .567.46 1.027 1.026 1.027h9.31c.911 0 1.372-1.106.726-1.753l-9.31-9.309c-.645-.645-1.752-.187-1.752.726v9.31Z" fill="#FF5A3C"/></svg>