<svg width="57" height="47" fill="none" xmlns="http://www.w3.org/2000/svg"><path fill-rule="evenodd" clip-rule="evenodd" d="M20.858 21.192c-11 0-19.917 8.917-19.917 19.917 0 1.745.226 3.438.648 5.05h37.944c.924.194 1.881.297 2.862.297 7.673 0 13.893-6.22 13.893-13.893 0-7.673-6.22-13.893-13.893-13.893a13.87 13.87 0 0 0-11.067 5.494 19.822 19.822 0 0 0-10.47-2.972Zm16.106 13.89 3.092-.47c.13.594.395 1.045.798 1.351.4.31.964.464 1.683.464.795 0 1.393-.147 1.796-.437a.987.987 0 0 0 .403-.826.81.81 0 0 0-.22-.578c-.153-.145-.496-.284-1.026-.407-2.483-.548-4.054-1.049-4.719-1.5-.922-.631-1.38-1.505-1.38-2.62 0-1.012.399-1.86 1.194-2.547.577-.498 1.384-.816 2.421-.953v-1.583h2.78v1.6c.855.118 1.535.347 2.04.686.773.523 1.307 1.292 1.598 2.31l-2.89.539c-.123-.456-.361-.807-.709-1.05-.347-.242-.843-.362-1.489-.362-.814 0-1.396.112-1.75.34-.236.16-.352.37-.352.623 0 .22.101.407.306.56.28.205 1.24.493 2.883.866 1.642.374 2.788.83 3.438 1.37.645.546.966 1.31.966 2.288 0 1.064-.444 1.983-1.336 2.748-.663.57-1.565.93-2.706 1.075v1.58h-2.779v-1.622c-.883-.145-1.627-.426-2.23-.843a4.41 4.41 0 0 1-1.812-2.602Zm5.431-12.863c-5.713 0-10.344 4.631-10.344 10.344 0 5.713 4.63 10.344 10.344 10.344 5.713 0 10.344-4.631 10.344-10.344 0-5.713-4.63-10.344-10.344-10.344ZM20.858.009a8.945 8.945 0 0 0-8.945 8.946A8.946 8.946 0 1 0 20.858.01Z" fill="#FF5A3C"/></svg>