<svg width="21" height="19" fill="none" xmlns="http://www.w3.org/2000/svg"><path fill-rule="evenodd" clip-rule="evenodd" d="M2.82 6.613c-.234 2.06-.223 4.437.102 6.49.18 1.135 1.155 2.005 2.36 2.105l1.258.104a47.93 47.93 0 0 0 7.887 0l1.259-.104c1.204-.1 2.18-.97 2.36-2.106.324-2.052.334-4.428.101-6.489-.03-.239-.064-.477-.102-.716-.18-1.135-1.155-2.006-2.36-2.105l-1.258-.104a47.927 47.927 0 0 0-7.887 0l-1.259.104c-1.204.1-2.18.97-2.36 2.105-.037.239-.071.477-.101.716ZM6.648 4.87c2.552-.21 5.119-.21 7.67 0l1.26.104c.628.052 1.137.506 1.231 1.099.01.062.02.123.028.185l-4.634 2.446a3.705 3.705 0 0 1-3.44 0L4.13 6.259l.029-.185c.093-.593.603-1.047 1.231-1.1l1.259-.103ZM16.99 7.536a21.894 21.894 0 0 1-.181 5.39c-.094.593-.603 1.047-1.232 1.099l-1.258.104c-2.552.21-5.119.21-7.671 0l-1.259-.104c-.628-.052-1.138-.506-1.231-1.1a21.898 21.898 0 0 1-.182-5.388l4.18 2.206a5.013 5.013 0 0 0 4.654 0l4.18-2.207Z" fill="#FF5A3C"/></svg>