<svg width="52" height="53" fill="none" xmlns="http://www.w3.org/2000/svg"><path d="M26.145 4.893c11.738 0 21.254 9.702 21.254 21.67 0 .848-.05 1.684-.143 2.508a11.74 11.74 0 0 0-3.047-2.293v-.216c0-1.493-.172-2.947-.501-4.334h-7.136c.106 1.123.17 2.275.191 3.447-1.124.213-2.19.585-3.179 1.101v-.212c0-1.497-.076-2.947-.22-4.336H18.925a41.896 41.896 0 0 0 .287 10.834h8.79a12.032 12.032 0 0 0-.747 3.25h-7.359c1.386 5.23 3.795 8.67 6.248 8.67.964 0 1.925-.535 2.817-1.503.767 1.335 1.768 2.648 2.973 3.939-1.842.53-3.784.815-5.793.815-11.736 0-21.247-9.703-21.247-21.67-.003-11.968 9.511-21.67 21.25-21.67Zm-9.546 31.42h-5.784a18.218 18.218 0 0 0 8.7 7.39c-1.11-1.778-2.026-4-2.7-6.533l-.216-.856Zm-.88-14.085H8.584l-.011.037a18.813 18.813 0 0 0-.493 4.299c0 2.288.408 4.478 1.156 6.5h6.742a44.843 44.843 0 0 1-.458-6.502c0-1.482.068-2.934.201-4.336l-.002.002Zm3.796-12.805-.05.018c-4.348 1.77-7.857 5.188-9.79 9.537h6.478c.667-3.796 1.827-7.102 3.364-9.555h-.002Zm6.63-1.28-.25.01c-2.683.252-5.282 4.59-6.487 10.825h13.477c-1.203-6.218-3.789-10.55-6.47-10.822l-.27-.011v-.002Zm6.63 1.278.225.38c1.423 2.409 2.5 5.572 3.134 9.18h6.477c-1.845-4.152-5.128-7.462-9.22-9.296l-.616-.262v-.002Z" fill="#FF5A3C"/><path d="M48.457 37.395a9.848 9.848 0 0 0-2.8-6.894 9.47 9.47 0 0 0-6.762-2.856 9.47 9.47 0 0 0-6.762 2.856 9.848 9.848 0 0 0-2.801 6.894c0 4.036 3.017 8.266 8.925 12.783a1.05 1.05 0 0 0 1.275 0c5.908-4.517 8.925-8.746 8.925-12.783Zm-12.75 0c0-.862.336-1.689.934-2.298a3.157 3.157 0 0 1 2.254-.952c.845 0 1.656.342 2.253.952.598.61.934 1.436.934 2.298 0 .862-.336 1.689-.934 2.298a3.157 3.157 0 0 1-2.254.952 3.157 3.157 0 0 1-2.253-.952 3.283 3.283 0 0 1-.934-2.298Z" fill="#FF5A3C"/></svg>