<svg width="16" height="15" fill="none" xmlns="http://www.w3.org/2000/svg"><path d="M15.161 7.375A7.264 7.264 0 0 0 7.896.109 7.264 7.264 0 0 0 .63 7.375a7.232 7.232 0 0 0 4.6 6.768c-.06-.557-.118-1.436.029-2.08.146-.557.85-3.604.85-3.604s-.206-.44-.206-1.084c0-.996.586-1.758 1.319-1.758.615 0 .908.469.908 1.026 0 .615-.41 1.552-.615 2.431-.147.703.38 1.29 1.084 1.29 1.289 0 2.285-1.348 2.285-3.311 0-1.758-1.26-2.96-3.018-2.96-2.08 0-3.281 1.553-3.281 3.136 0 .644.234 1.318.527 1.67.059.058.059.146.059.205-.059.234-.205.732-.205.82-.03.146-.117.176-.264.117-.908-.44-1.465-1.758-1.465-2.842 0-2.285 1.67-4.394 4.805-4.394 2.52 0 4.482 1.816 4.482 4.218 0 2.49-1.582 4.512-3.779 4.512-.732 0-1.435-.38-1.67-.85 0 0-.351 1.407-.44 1.73-.175.644-.614 1.435-.907 1.903.673.235 1.406.323 2.168.323a7.264 7.264 0 0 0 7.265-7.266Z" fill="#fff"/></svg>