<svg width="40" height="28" fill="none" xmlns="http://www.w3.org/2000/svg"><g opacity=".5" fill="#FF5A3C"><path d="M23.832 23.86c1.557 2.25 4.018 3.375 7.383 3.375 2.617 0 4.735-.7 6.355-2.098 1.62-1.46 2.43-3.375 2.43-5.747 0-2.493-.748-4.409-2.243-5.746-1.495-1.399-3.49-2.098-5.981-2.098-2.929 0-5.203.942-6.823 2.827-.124-.425-.187-1.094-.187-2.006 0-1.156.156-2.16.468-3.01.498-1.52 1.37-2.95 2.616-4.288 1.309-1.398 2.773-2.463 4.393-3.192L31.402.235c-3.24 1.46-5.701 3.527-7.383 6.203-1.683 2.675-2.524 5.594-2.524 8.756 0 1.825.218 3.497.654 5.017.437 1.52.997 2.737 1.683 3.649ZM2.336 23.86c1.558 2.25 4.02 3.375 7.384 3.375 2.616 0 4.735-.7 6.355-2.098 1.62-1.46 2.43-3.375 2.43-5.747 0-2.493-.748-4.409-2.243-5.746-1.496-1.399-3.49-2.098-5.982-2.098-2.928 0-5.202.942-6.822 2.827-.125-.425-.187-1.094-.187-2.006 0-1.156.156-2.16.467-3.01.499-1.52 1.371-2.95 2.617-4.288 1.309-1.398 2.773-2.463 4.393-3.192L9.907.235c-3.24 1.46-5.701 3.527-7.384 6.203C.841 9.113 0 12.032 0 15.194c0 1.825.218 3.497.654 5.017.436 1.52.997 2.737 1.682 3.649Z"/></g></svg>