<svg width="16" height="13" fill="none" xmlns="http://www.w3.org/2000/svg"><path d="M14.017 3.328a6.515 6.515 0 0 0 1.524-1.582 5.765 5.765 0 0 1-1.758.469 3.006 3.006 0 0 0 1.347-1.7 6.498 6.498 0 0 1-1.933.762A3.077 3.077 0 0 0 10.94.311a3.076 3.076 0 0 0-3.076 3.076c0 .234.029.468.088.703A8.925 8.925 0 0 1 1.595.867c-.263.44-.41.967-.41 1.553 0 1.055.527 1.992 1.377 2.549-.498-.03-.996-.147-1.406-.381v.03a3.08 3.08 0 0 0 2.46 3.017 3.434 3.434 0 0 1-.79.117c-.205 0-.381-.03-.586-.059a3.061 3.061 0 0 0 2.87 2.139 6.185 6.185 0 0 1-3.808 1.318c-.263 0-.498-.029-.732-.058 1.347.879 2.959 1.377 4.717 1.377 5.654 0 8.73-4.658 8.73-8.73v-.41Z" fill="#FF5A3C"/></svg>