<svg width="38" height="39" fill="none" xmlns="http://www.w3.org/2000/svg"><path d="M15.97.204h5.88v7.088h-5.88V.204ZM15.97 10.02h5.88v3.636h-5.88V10.02Z" fill="#FF5A3C"/><path d="M1.793 38.204a1.078 1.078 0 0 1-1.078-1.078V10.02H13.24v5c0 .753.611 1.364 1.364 1.364h8.607c.754 0 1.365-.61 1.365-1.364v-5H37.26v27.106c0 .595-.482 1.078-1.078 1.078H1.792ZM24.575 7.292H37.26V2.096c0-1.045-.704-1.892-1.572-1.892H24.575v7.088ZM2.021.204h11.22v7.088H.715V1.776C.715.908 1.3.204 2.02.204Z" fill="#FF5A3C"/></svg>