<svg width="18" height="17" fill="none" xmlns="http://www.w3.org/2000/svg"><path fill-rule="evenodd" clip-rule="evenodd" d="M5.657 7.083a3.365 3.365 0 1 1 6.729 0 3.365 3.365 0 0 1-6.73 0ZM9.02 4.781a2.302 2.302 0 1 0 0 4.604 2.302 2.302 0 0 0 0-4.604Z" fill="#FF5A3C"/><path fill-rule="evenodd" clip-rule="evenodd" d="M3.018 6.273A5.87 5.87 0 0 1 8.868.885h.306a5.87 5.87 0 0 1 5.85 5.388 6.335 6.335 0 0 1-1.409 4.53l-3.395 4.153a1.55 1.55 0 0 1-2.398 0l-3.395-4.152a6.335 6.335 0 0 1-1.41-4.53Zm5.85-4.325A4.808 4.808 0 0 0 4.076 6.36a5.272 5.272 0 0 0 1.173 3.77l3.395 4.152a.487.487 0 0 0 .754 0l3.395-4.152a5.272 5.272 0 0 0 1.173-3.77 4.808 4.808 0 0 0-4.792-4.413h-.306Z" fill="#FF5A3C"/></svg>