<svg width="60" height="61" fill="none" xmlns="http://www.w3.org/2000/svg"><circle cx="30" cy="30.235" r="29.5" stroke="#FF5A3C"/><g opacity=".5" fill="#FF5A3C"><path opacity=".4" d="m33.797 31.425 3.7.327c.83 0 1.503-.68 1.503-1.518a1.51 1.51 0 0 0-1.503-1.518l-3.7.328c-.65 0-1.179.533-1.179 1.19 0 .66.528 1.191 1.18 1.191Z"/><path d="M21.375 31.365c.058.058.274.305.477.51 1.184 1.283 4.274 3.382 5.89 4.024.246.102.867.32 1.2.336a2 2 0 0 0 .91-.22c.36-.203.649-.525.808-.904.101-.262.26-1.05.26-1.064.159-.86.245-2.259.245-3.805 0-1.472-.086-2.814-.216-3.688-.014-.016-.173-.993-.347-1.328A1.814 1.814 0 0 0 29 24.235h-.058c-.433.014-1.343.394-1.343.407-1.53.643-4.548 2.64-5.761 3.967 0 0-.343.341-.491.554A1.768 1.768 0 0 0 21 30.227c0 .423.13.816.375 1.138Z"/></g></svg>