<svg width="114" height="118" fill="none" xmlns="http://www.w3.org/2000/svg"><g filter="url('#filter0_d_2_255')"><circle cx="57" cy="30.235" r="30" fill="#FF5A3C"/></g><path opacity=".4" d="m53.203 31.425-3.7.327A1.51 1.51 0 0 1 48 30.234a1.51 1.51 0 0 1 1.503-1.518l3.7.328c.65 0 1.179.533 1.179 1.19 0 .66-.528 1.191-1.18 1.191Z" fill="#FDFDFD"/><path d="M65.625 31.365c-.058.058-.274.305-.477.51-1.184 1.283-4.274 3.382-5.89 4.024-.246.102-.867.32-1.2.336a2 2 0 0 1-.91-.22 1.886 1.886 0 0 1-.808-.904c-.101-.262-.26-1.05-.26-1.064-.159-.86-.245-2.259-.245-3.805 0-1.472.086-2.814.216-3.688.014-.016.173-.993.347-1.328A1.814 1.814 0 0 1 58 24.235h.058c.433.014 1.343.394 1.343.407 1.53.643 4.548 2.64 5.761 3.967 0 0 .343.341.491.554.231.306.347.685.347 1.064 0 .423-.13.816-.375 1.138Z" fill="#FDFDFD"/><defs><filter id="filter0_d_2_255" x="0" y=".235" width="114" height="117" filterUnits="userSpaceOnUse" color-interpolation-filters="sRGB"><feFlood flood-opacity="0" result="BackgroundImageFix"/><feColorMatrix in="SourceAlpha" values="0 0 0 0 0 0 0 0 0 0 0 0 0 0 0 0 0 0 127 0" result="hardAlpha"/><feMorphology radius="8" in="SourceAlpha" result="effect1_dropShadow_2_255"/><feOffset dy="30"/><feGaussianBlur stdDeviation="17.5"/><feColorMatrix values="0 0 0 0 0.980392 0 0 0 0 0.701961 0 0 0 0 0.247059 0 0 0 0.15 0"/><feBlend in2="BackgroundImageFix" result="effect1_dropShadow_2_255"/><feBlend in="SourceGraphic" in2="effect1_dropShadow_2_255" result="shape"/></filter></defs></svg>