<svg width="52" height="41" fill="none" xmlns="http://www.w3.org/2000/svg"><path d="M13.283 13.855a1.491 1.491 0 0 0-2.173-2.04l-.733.732V6.55a2.64 2.64 0 0 1 2.637-2.636A2.64 2.64 0 0 1 15.65 6.55a1.492 1.492 0 0 0 2.984 0c0-3.1-2.521-5.62-5.62-5.62-3.1 0-5.621 2.52-5.621 5.62v5.997l-.732-.732a1.492 1.492 0 0 0-2.174 2.04h8.796ZM49.963 16.84H2.013a1.492 1.492 0 0 0 0 2.985h.56a8652.54 8652.54 0 0 0 2.324 8.777c.942 3.55 3.403 6.277 6.596 7.583l-1.38 1.7a1.492 1.492 0 0 0 2.318 1.88l2.263-2.79c.383.038.771.06 1.164.06h20.263c.397 0 .788-.022 1.175-.06l2.264 2.79a1.49 1.49 0 0 0 2.099.22c.64-.52.738-1.46.219-2.1l-1.383-1.704c3.19-1.308 5.648-4.035 6.588-7.582.839-3.165 1.605-6.047 2.332-8.774h.548a1.492 1.492 0 0 0 0-2.985Z" fill="#FF5A3C"/></svg>