<svg width="24" height="24" fill="none" xmlns="http://www.w3.org/2000/svg"><path d="m17.64 14.796 1.776 8.439-7.417-4.31v-5.976l5.64 1.847Z" fill="#FEE25D"/><path d="m19.416 23.235-1.777-8.44L12 12.95l7.417 10.286Z" fill="#FAC030"/><path d="m12 18.925-7.417 4.31 1.777-8.44L12 12.95v5.976Z" fill="#FFF277"/><path d="M4.583 23.235 12 18.925v-5.976L4.583 23.235Z" fill="#FED835"/><path d="M15.486 8.114 24 9.02l-6.36 5.775-5.639-1.846 3.486-4.835Z" fill="#FED839"/><path d="M17.64 14.796 24 9.02 12 12.95l5.64 1.847Z" fill="#FAA922"/><path d="M6.36 14.795 0 9.02l8.514-.905 3.485 4.834-5.64 1.846Z" fill="#FDF5A3"/><path d="m0 9.02 6.36 5.776L12 12.949 0 9.02Z" fill="#FBDA37"/><path d="m12 .235 3.485 7.88L12 12.949 8.514 8.115 12 .235Z" fill="#FEF278"/><path d="M15.485 8.115 11.999.235v12.714l3.486-4.834Z" fill="#FCC02C"/></svg>