<svg width="157" height="157" fill="none" xmlns="http://www.w3.org/2000/svg"><g opacity=".2" filter="url('#filter0_d_2_602')"><path fill-rule="evenodd" clip-rule="evenodd" d="M77.324 17.432c23.639 0 46.159 15.602 46.159 39.367 0 26.821-19.479 50.633-46.159 50.633-26.076 0-43.84-24.418-43.84-50.634 0-23.078 20.884-39.366 43.84-39.366Z" fill="#F5DFDC"/></g><g clip-path="url('#clip0_2_602')"><path fill-rule="evenodd" clip-rule="evenodd" d="M72.878 60.957c-7.95 0-14.395 6.444-14.395 14.394 0 1.262.163 2.485.468 3.65h27.424c.667.14 1.359.214 2.068.214 5.545 0 10.04-4.495 10.04-10.04 0-5.546-4.495-10.041-10.04-10.041a10.025 10.025 0 0 0-7.999 3.971 14.325 14.325 0 0 0-7.566-2.148Zm11.64 10.039 2.234-.34c.094.429.286.755.577.976.289.224.696.335 1.217.335.574 0 1.006-.106 1.297-.316a.714.714 0 0 0 .292-.596.585.585 0 0 0-.16-.418c-.11-.105-.358-.205-.741-.294-1.794-.397-2.93-.758-3.41-1.085-.667-.455-.998-1.087-.998-1.893 0-.731.288-1.344.863-1.84.417-.36 1-.59 1.75-.689v-1.144h2.009v1.156c.618.085 1.11.25 1.475.496.558.377.944.933 1.154 1.67l-2.088.389a1.306 1.306 0 0 0-.513-.759c-.25-.175-.61-.262-1.076-.262-.588 0-1.009.081-1.265.246a.525.525 0 0 0-.254.45.49.49 0 0 0 .221.405c.203.148.896.356 2.083.626 1.187.27 2.016.6 2.485.99.466.394.698.947.698 1.654 0 .769-.32 1.432-.965 1.985-.48.413-1.13.672-1.956.778v1.141H87.44v-1.172c-.639-.105-1.176-.308-1.613-.609a3.187 3.187 0 0 1-1.308-1.88Zm3.925-9.297a7.476 7.476 0 0 0-7.476 7.476 7.476 7.476 0 1 0 14.951 0 7.475 7.475 0 0 0-7.475-7.476ZM72.878 45.648a6.465 6.465 0 1 0 0 12.93 6.465 6.465 0 0 0 0-12.93Z" fill="#fff"/></g><defs><clipPath id="clip0_2_602"><path fill="#fff" transform="matrix(-1 0 0 1 98.483 42.432)" d="M0 0h40v40H0z"/></clipPath><filter id="filter0_d_2_602" x=".483" y=".432" width="156" height="156" filterUnits="userSpaceOnUse" color-interpolation-filters="sRGB"><feFlood flood-opacity="0" result="BackgroundImageFix"/><feColorMatrix in="SourceAlpha" values="0 0 0 0 0 0 0 0 0 0 0 0 0 0 0 0 0 0 127 0" result="hardAlpha"/><feMorphology radius="12" in="SourceAlpha" result="effect1_dropShadow_2_602"/><feOffset dy="16"/><feGaussianBlur stdDeviation="22.5"/><feColorMatrix values="0 0 0 0 0.235294 0 0 0 0 0.313726 0 0 0 0 0.878431 0 0 0 0.05 0"/><feBlend in2="BackgroundImageFix" result="effect1_dropShadow_2_602"/><feBlend in="SourceGraphic" in2="effect1_dropShadow_2_602" result="shape"/></filter></defs></svg>