<svg width="31" height="31" fill="none" xmlns="http://www.w3.org/2000/svg"><rect x=".951" y=".759" width="30" height="30" rx="15" fill="#FF5A3C" fill-opacity=".2"/><path d="m8.753 7.897 3.19 3.19-1.318 1.319a.47.47 0 1 0 .664.664l1.319-1.318 1.34 1.34-1.32 1.318a.47.47 0 0 0 .665.664l1.318-1.318 1.34 1.34-1.318 1.318a.47.47 0 0 0 .664.664l1.318-1.319 1.34 1.34-1.318 1.318a.47.47 0 0 0 .664.665l1.318-1.319 1.34 1.34-1.319 1.318a.47.47 0 1 0 .665.664l1.318-1.318 3.19 3.19a.47.47 0 0 1-.332.802H8.421a.47.47 0 0 1-.47-.47V8.23a.47.47 0 0 1 .802-.332Zm2.235 12.355c0 .26.21.47.47.47h4.258a.47.47 0 0 0 .332-.802l-4.258-4.258a.47.47 0 0 0-.802.332v4.259Z" fill="#FF5A3C"/></svg>