<svg width="157" height="157" fill="none" xmlns="http://www.w3.org/2000/svg"><g filter="url('#filter0_d_2_586')"><path fill-rule="evenodd" clip-rule="evenodd" d="M77.324 17.432c23.639 0 46.159 15.602 46.159 39.367 0 26.821-19.479 50.633-46.159 50.633-26.076 0-43.84-24.418-43.84-50.634 0-23.078 20.884-39.366 43.84-39.366Z" fill="#F5DFDC"/></g><g clip-path="url('#clip0_2_586')"><path d="M77.583 76.501H71.31c-4.028 0-7.306-.24-7.306-4.22V62.246h-2.32a1.955 1.955 0 0 1-1.803-1.198 1.944 1.944 0 0 1 .422-2.12l15.419-15.356a3.886 3.886 0 0 1 2.76-1.14c1.042 0 2.024.406 2.76 1.14l5.742 5.718.404.403c.037.036.055-.215.055-.755a2.579 2.579 0 0 1 2.576-2.402h.016a2.586 2.586 0 0 1 2.592 2.581v5.363c0 .142-.02.266-.041.392l4.075 4.056c.559.557.725 1.392.422 2.12a1.953 1.953 0 0 1-1.803 1.198h-2.653v1.284a10.303 10.303 0 0 1 4.605 8.59c0 5.696-4.617 10.313-10.312 10.313-4.129 0-7.69-2.427-9.338-5.931Zm9.338 4.993a9.375 9.375 0 1 0 0-18.75 9.375 9.375 0 0 0 0 18.75Zm3.877-7.654c0 .69-.247 1.286-.742 1.788-.494.503-1.211.825-2.15.967v.636a.748.748 0 0 1-1.496 0v-.586a7.807 7.807 0 0 1-1.77-.318 5.968 5.968 0 0 1-.929-.364.55.55 0 0 1-.256-.715l.012-.025.405-.91a.426.426 0 0 1 .591-.203l.06.032c.276.14.577.259.902.358a5.173 5.173 0 0 0 1.52.237c.948 0 1.422-.237 1.422-.71 0-.25-.135-.435-.405-.555-.27-.12-.705-.247-1.303-.38a12.418 12.418 0 0 1-1.646-.456 2.77 2.77 0 0 1-1.134-.779c-.316-.357-.474-.84-.474-1.446 0-.715.258-1.328.773-1.839.516-.51 1.26-.825 2.232-.94v-.624a.748.748 0 0 1 1.496 0v.598c.473.042.929.125 1.365.25a5.37 5.37 0 0 1 .925.356c.137.07.197.234.138.377l-.566 1.363a.221.221 0 0 1-.304.113 5.385 5.385 0 0 0-.106-.052c-.719-.341-1.42-.512-2.1-.512-.49 0-.848.073-1.073.218-.224.146-.336.335-.336.568 0 .232.133.407.399.523.266.117.694.237 1.284.362.665.141 1.215.293 1.652.455.436.162.814.42 1.134.773.32.353.48.833.48 1.44Z" fill="#FF5A3C"/></g><defs><clipPath id="clip0_2_586"><path fill="#fff" transform="translate(58.483 42.432)" d="M0 0h40v40H0z"/></clipPath><filter id="filter0_d_2_586" x=".483" y=".432" width="156" height="156" filterUnits="userSpaceOnUse" color-interpolation-filters="sRGB"><feFlood flood-opacity="0" result="BackgroundImageFix"/><feColorMatrix in="SourceAlpha" values="0 0 0 0 0 0 0 0 0 0 0 0 0 0 0 0 0 0 127 0" result="hardAlpha"/><feMorphology radius="12" in="SourceAlpha" result="effect1_dropShadow_2_586"/><feOffset dy="16"/><feGaussianBlur stdDeviation="22.5"/><feColorMatrix values="0 0 0 0 0.235294 0 0 0 0 0.313726 0 0 0 0 0.878431 0 0 0 0.05 0"/><feBlend in2="BackgroundImageFix" result="effect1_dropShadow_2_586"/><feBlend in="SourceGraphic" in2="effect1_dropShadow_2_586" result="shape"/></filter></defs></svg>