<svg width="45" height="48" fill="none" xmlns="http://www.w3.org/2000/svg"><path d="M21.453 40.685h-7.347c-4.719 0-8.558-.28-8.558-4.943V23.985H2.83a2.29 2.29 0 0 1-2.114-1.404 2.277 2.277 0 0 1 .495-2.483L19.274 2.11A4.552 4.552 0 0 1 22.508.775c1.22 0 2.37.474 3.234 1.334l6.726 6.7.473.47c.043.043.064-.252.064-.884a3.021 3.021 0 0 1 3.018-2.813h.018a3.029 3.029 0 0 1 3.037 3.023v6.282c0 .167-.023.312-.049.46l4.775 4.751a2.27 2.27 0 0 1 .494 2.483 2.288 2.288 0 0 1-2.113 1.404h-3.107v1.503a12.07 12.07 0 0 1 5.395 10.064c0 6.672-5.409 12.08-12.08 12.08-4.837 0-9.01-2.842-10.94-6.947Zm10.94 5.85c6.065 0 10.982-4.918 10.982-10.983S38.458 24.57 32.392 24.57c-6.065 0-10.982 4.917-10.982 10.982 0 6.065 4.917 10.982 10.982 10.982Zm4.541-8.968c0 .809-.29 1.507-.869 2.096-.579.59-1.419.966-2.519 1.132v.745a.876.876 0 1 1-1.752 0v-.687a9.152 9.152 0 0 1-2.074-.372 7 7 0 0 1-1.088-.426.644.644 0 0 1-.3-.837l.014-.03.475-1.067a.5.5 0 0 1 .692-.237l.071.038c.323.163.675.303 1.056.42a6.06 6.06 0 0 0 1.782.277c1.11 0 1.664-.278 1.664-.833 0-.292-.158-.508-.474-.65-.317-.14-.825-.29-1.526-.445a14.568 14.568 0 0 1-1.928-.533 3.245 3.245 0 0 1-1.33-.913c-.37-.418-.554-.983-.554-1.694 0-.837.302-1.555.905-2.154.604-.599 1.475-.966 2.615-1.102v-.73a.876.876 0 0 1 1.752 0v.7a8.513 8.513 0 0 1 1.6.292 6.275 6.275 0 0 1 1.083.418c.16.082.23.274.162.441l-.663 1.598a.26.26 0 0 1-.356.132 6.28 6.28 0 0 0-.124-.061c-.843-.4-1.663-.6-2.461-.6-.575 0-.993.085-1.256.256-.263.17-.395.392-.395.664 0 .273.156.477.468.614.311.136.813.277 1.504.423.779.166 1.424.343 1.935.533.511.19.954.492 1.329.906.375.413.562.976.562 1.686Z" fill="#FF5A3C"/></svg>